<svg width="85" height="54" viewBox="0 0 85 54" fill="none" xmlns="http://www.w3.org/2000/svg">
<g opacity="0.8" filter="url(#filter0_i_189_88)">
<circle cx="24" cy="27" r="24" fill="#FBFBFB"/>
</g>
<g opacity="0.95" filter="url(#filter1_i_189_88)">
<circle cx="61" cy="27" r="24" fill="#EED1A4"/>
</g>
<path d="M15.3266 32.176C15.3266 30.976 15.5186 29.952 15.9026 29.104C16.2866 28.24 16.9746 27.288 17.9666 26.248C18.9426 25.208 19.6146 24.32 19.9826 23.584C20.3666 22.848 20.5586 22.08 20.5586 21.28C20.5586 20.56 20.4386 20.064 20.1986 19.792C19.9746 19.504 19.6386 19.36 19.1906 19.36C18.2786 19.36 17.8226 19.912 17.8226 21.016V22.816H15.3266V21.184C15.3266 19.824 15.6626 18.784 16.3346 18.064C17.0066 17.328 17.9826 16.96 19.2626 16.96C20.5426 16.96 21.5186 17.328 22.1906 18.064C22.8626 18.784 23.1986 19.824 23.1986 21.184C23.1986 22.208 22.9506 23.208 22.4546 24.184C21.9746 25.16 21.1346 26.28 19.9346 27.544C19.1506 28.376 18.6226 29.056 18.3506 29.584C18.0786 30.096 17.9426 30.648 17.9426 31.24V31.6H22.9586V34H15.3266V32.176ZM28.8 34.24C27.504 34.24 26.512 33.872 25.824 33.136C25.136 32.4 24.792 31.36 24.792 30.016V21.184C24.792 19.84 25.136 18.8 25.824 18.064C26.512 17.328 27.504 16.96 28.8 16.96C30.096 16.96 31.088 17.328 31.776 18.064C32.464 18.8 32.808 19.84 32.808 21.184V30.016C32.808 31.36 32.464 32.4 31.776 33.136C31.088 33.872 30.096 34.24 28.8 34.24ZM28.8 31.84C29.712 31.84 30.168 31.288 30.168 30.184V21.016C30.168 19.912 29.712 19.36 28.8 19.36C27.888 19.36 27.432 19.912 27.432 21.016V30.184C27.432 31.288 27.888 31.84 28.8 31.84Z" fill="#222222"/>
<path d="M52.3266 32.176C52.3266 30.976 52.5186 29.952 52.9026 29.104C53.2866 28.24 53.9746 27.288 54.9666 26.248C55.9426 25.208 56.6146 24.32 56.9826 23.584C57.3666 22.848 57.5586 22.08 57.5586 21.28C57.5586 20.56 57.4386 20.064 57.1986 19.792C56.9746 19.504 56.6386 19.36 56.1906 19.36C55.2786 19.36 54.8226 19.912 54.8226 21.016V22.816H52.3266V21.184C52.3266 19.824 52.6626 18.784 53.3346 18.064C54.0066 17.328 54.9826 16.96 56.2626 16.96C57.5426 16.96 58.5186 17.328 59.1906 18.064C59.8626 18.784 60.1986 19.824 60.1986 21.184C60.1986 22.208 59.9506 23.208 59.4546 24.184C58.9746 25.16 58.1346 26.28 56.9346 27.544C56.1506 28.376 55.6226 29.056 55.3506 29.584C55.0786 30.096 54.9426 30.648 54.9426 31.24V31.6H59.9586V34H52.3266V32.176ZM61.936 32.176C61.936 30.976 62.128 29.952 62.512 29.104C62.896 28.24 63.584 27.288 64.576 26.248C65.552 25.208 66.224 24.32 66.592 23.584C66.976 22.848 67.168 22.08 67.168 21.28C67.168 20.56 67.048 20.064 66.808 19.792C66.584 19.504 66.248 19.36 65.8 19.36C64.888 19.36 64.432 19.912 64.432 21.016V22.816H61.936V21.184C61.936 19.824 62.272 18.784 62.944 18.064C63.616 17.328 64.592 16.96 65.872 16.96C67.152 16.96 68.128 17.328 68.8 18.064C69.472 18.784 69.808 19.824 69.808 21.184C69.808 22.208 69.56 23.208 69.064 24.184C68.584 25.16 67.744 26.28 66.544 27.544C65.76 28.376 65.232 29.056 64.96 29.584C64.688 30.096 64.552 30.648 64.552 31.24V31.6H69.568V34H61.936V32.176Z" fill="#222222"/>
<defs>
<filter id="filter0_i_189_88" x="0" y="3" width="48" height="52" filterUnits="userSpaceOnUse" color-interpolation-filters="sRGB">
<feFlood flood-opacity="0" result="BackgroundImageFix"/>
<feBlend mode="normal" in="SourceGraphic" in2="BackgroundImageFix" result="shape"/>
<feColorMatrix in="SourceAlpha" type="matrix" values="0 0 0 0 0 0 0 0 0 0 0 0 0 0 0 0 0 0 127 0" result="hardAlpha"/>
<feOffset dy="4"/>
<feGaussianBlur stdDeviation="3"/>
<feComposite in2="hardAlpha" operator="arithmetic" k2="-1" k3="1"/>
<feColorMatrix type="matrix" values="0 0 0 0 0 0 0 0 0 0 0 0 0 0 0 0 0 0 0.25 0"/>
<feBlend mode="normal" in2="shape" result="effect1_innerShadow_189_88"/>
</filter>
<filter id="filter1_i_189_88" x="37" y="3" width="48" height="52" filterUnits="userSpaceOnUse" color-interpolation-filters="sRGB">
<feFlood flood-opacity="0" result="BackgroundImageFix"/>
<feBlend mode="normal" in="SourceGraphic" in2="BackgroundImageFix" result="shape"/>
<feColorMatrix in="SourceAlpha" type="matrix" values="0 0 0 0 0 0 0 0 0 0 0 0 0 0 0 0 0 0 127 0" result="hardAlpha"/>
<feOffset dy="4"/>
<feGaussianBlur stdDeviation="2.5"/>
<feComposite in2="hardAlpha" operator="arithmetic" k2="-1" k3="1"/>
<feColorMatrix type="matrix" values="0 0 0 0 0 0 0 0 0 0 0 0 0 0 0 0 0 0 0.25 0"/>
<feBlend mode="normal" in2="shape" result="effect1_innerShadow_189_88"/>
</filter>
</defs>
</svg>
