<svg width="79" height="79" viewBox="0 0 79 79" fill="none" xmlns="http://www.w3.org/2000/svg">
<path d="M43.875 52.625V70.125H57V78.875H22V70.125H35.125V52.625H4.5C3.33968 52.625 2.22688 52.1641 1.40641 51.3436C0.585936 50.5231 0.125 49.4103 0.125 48.25V4.5C0.125 3.33968 0.585936 2.22688 1.40641 1.40641C2.22688 0.585936 3.33968 0.125 4.5 0.125H74.5C75.6603 0.125 76.7731 0.585936 77.5936 1.40641C78.4141 2.22688 78.875 3.33968 78.875 4.5V48.25C78.875 49.4103 78.4141 50.5231 77.5936 51.3436C76.7731 52.1641 75.6603 52.625 74.5 52.625H43.875ZM22 22V30.75H57V22H22Z" fill="#F5F5F5"/>
</svg>
